<svg xmlns="http://www.w3.org/2000/svg" xmlns:xlink="http://www.w3.org/1999/xlink" viewBox="0 0 402.6 121.33"><defs><style>.cls-1{fill:url(#linear-gradient);}.cls-2{fill:url(#linear-gradient-2);}.cls-3{fill:url(#linear-gradient-3);}</style><linearGradient id="linear-gradient" x1="130.52" y1="98.07" x2="237.06" y2="-40.37" gradientUnits="userSpaceOnUse"><stop offset="0" stop-color="#ff6b95"/><stop offset="0.13" stop-color="#ff375d"/><stop offset="0.38" stop-color="#360e50"/><stop offset="0.65" stop-color="#0095d7"/><stop offset="0.81" stop-color="#00a2e8"/><stop offset="1" stop-color="#000058"/></linearGradient><linearGradient id="linear-gradient-2" x1="74.11" y1="93.66" x2="320.69" y2="-36.01" gradientUnits="userSpaceOnUse"><stop offset="0" stop-color="#ff6b95"/><stop offset="0.13" stop-color="#ff375d"/><stop offset="0.38" stop-color="#360e50"/><stop offset="0.55" stop-color="#0095d7"/><stop offset="0.81" stop-color="#00a2e8"/><stop offset="1" stop-color="#000058"/></linearGradient><linearGradient id="linear-gradient-3" x1="66.55" y1="79.29" x2="313.13" y2="-50.39" xlink:href="#linear-gradient-2"/></defs><title>Logo-B</title><g id="Layer_2" data-name="Layer 2"><g id="Layer_1-2" data-name="Layer 1"><path d="M0,66.67V16.27H5v50.4Z"/><path d="M16.56,16.27h18A15.5,15.5,0,0,1,50.4,32.1,15.5,15.5,0,0,1,34.56,47.94h-13V66.67h-5Zm5,26.92h13a10.3,10.3,0,0,0,7.7-3.09,10.81,10.81,0,0,0,3.1-8,10.68,10.68,0,0,0-3.1-7.91A10.14,10.14,0,0,0,34.56,21h-13Z"/><path d="M62.35,30.67v6q3.32-6.55,11.38-6.55V34.7a11.37,11.37,0,0,0-8.28,3q-3.11,3-3.1,9v20H57.6v-36Z"/><path d="M108.22,62.13a19.4,19.4,0,0,1-26.86,0,18.3,18.3,0,0,1-5.47-13.46,18.07,18.07,0,0,1,5.47-13.4,19.22,19.22,0,0,1,26.86,0,18,18,0,0,1,5.54,13.4A18.35,18.35,0,0,1,108.22,62.13ZM84.74,58.82a14.44,14.44,0,0,0,20.16,0A14.09,14.09,0,0,0,109,48.67a13.71,13.71,0,0,0-4.11-10.09,14.27,14.27,0,0,0-20.16,0,13.74,13.74,0,0,0-4.1,10.09A14.12,14.12,0,0,0,84.74,58.82Z"/><path d="M255.36,67.53a20.83,20.83,0,0,1-11.84-3.28,17.08,17.08,0,0,1-6.88-9L241,52.7A13,13,0,0,0,246,60a16,16,0,0,0,9.39,2.59q5.55,0,8.71-2.44a7.92,7.92,0,0,0,3.17-6.63,6.84,6.84,0,0,0-2.88-6q-2.81-2-9.5-4.17-8-2.67-10.37-4.18a11,11,0,0,1-5.76-10,12.34,12.34,0,0,1,4.46-10.08,16.38,16.38,0,0,1,11-3.75,17.52,17.52,0,0,1,10.08,3,18.25,18.25,0,0,1,6.55,7.88l-4.25,2.38q-3.45-8.35-12.38-8.35a11.6,11.6,0,0,0-7.6,2.34A7.82,7.82,0,0,0,243.84,29a6.37,6.37,0,0,0,2.59,5.62A34.52,34.52,0,0,0,255,38.44l3.89,1.37a36.42,36.42,0,0,1,3.45,1.29,18.15,18.15,0,0,1,3.39,1.59c2.54,1.54,4.15,3,4.82,4.25a12,12,0,0,1,1.8,6.48,12.71,12.71,0,0,1-4.68,10.29Q263,67.54,255.36,67.53Z"/><path d="M298.27,30.67v4.6H287.9V57.09a6.16,6.16,0,0,0,1.16,4.21,4.55,4.55,0,0,0,3.45,1.3c1.54,0,3.46,0,5.76-.11v4.18q-7.71,1.14-11.41-1.12t-3.71-8.46V35.27h-7.56v-4.6h7.56V22l4.75-1.44V30.67Z"/><path d="M334.2,62.13a18.9,18.9,0,0,1-32.33-13.46,18.11,18.11,0,0,1,5.47-13.4,19.22,19.22,0,0,1,26.86,0,18,18,0,0,1,5.54,13.4A18.35,18.35,0,0,1,334.2,62.13Zm-23.47-3.31a14.44,14.44,0,0,0,20.16,0A14.12,14.12,0,0,0,335,48.67a13.74,13.74,0,0,0-4.1-10.09,14.19,14.19,0,0,0-24.27,10.09A14.09,14.09,0,0,0,310.73,58.82Z"/><path d="M352.41,30.67v6q3.31-6.55,11.38-6.55V34.7a11.37,11.37,0,0,0-8.28,3q-3.09,3-3.1,9v20h-4.75v-36Z"/><path d="M384.74,29.8a16.06,16.06,0,0,1,12.89,5.69,19.44,19.44,0,0,1,5,13.32c0,.24-.05,1-.14,2.23H370.85a13,13,0,0,0,4.61,8.64,14.65,14.65,0,0,0,9.71,3.24q8.22,0,11.6-6.12l4.17,2.45a16.52,16.52,0,0,1-6.51,6.08,19.53,19.53,0,0,1-9.33,2.2q-8.49,0-13.82-5.33A18.33,18.33,0,0,1,366,48.67a18.36,18.36,0,0,1,5.26-13.47A18,18,0,0,1,384.74,29.8Zm0,4.61a13.73,13.73,0,0,0-9.39,3.31,13.53,13.53,0,0,0-4.5,8.71H397.7a13.61,13.61,0,0,0-4.39-8.85A12.91,12.91,0,0,0,384.74,34.41Z"/><path d="M80.2,121.33a9.92,9.92,0,0,1-5.63-1.56,8.16,8.16,0,0,1-3.27-4.3l2-1.19a6.22,6.22,0,0,0,2.42,3.49A7.6,7.6,0,0,0,80.23,119a6.57,6.57,0,0,0,4.14-1.17,3.74,3.74,0,0,0,1.51-3.14,3.24,3.24,0,0,0-1.37-2.84,17.62,17.62,0,0,0-4.52-2,26.62,26.62,0,0,1-4.92-2,5.23,5.23,0,0,1-2.74-4.76,5.85,5.85,0,0,1,2.12-4.79,7.78,7.78,0,0,1,5.24-1.78A8.31,8.31,0,0,1,84.48,98a8.69,8.69,0,0,1,3.11,3.75l-2,1.13a5.9,5.9,0,0,0-5.88-4A5.55,5.55,0,0,0,76.07,100a3.71,3.71,0,0,0-1.35,3A3,3,0,0,0,76,105.69,16.55,16.55,0,0,0,80,107.5l1.85.65c.38.12.93.32,1.64.62a8.06,8.06,0,0,1,1.61.75,6.12,6.12,0,0,1,2.29,2,5.69,5.69,0,0,1,.85,3.08,6,6,0,0,1-2.22,4.89A9,9,0,0,1,80.2,121.33Z"/><path d="M100.59,103.81V106H95.66v10.36a3,3,0,0,0,.55,2,2.19,2.19,0,0,0,1.64.61c.73,0,1.65,0,2.74,0v2q-3.66.54-5.42-.54c-1.18-.71-1.76-2-1.76-4V106h-3.6v-2.19h3.6V99.7L95.66,99v4.8Z"/><path d="M117.67,118.76a9.22,9.22,0,0,1-12.77,0,8.71,8.71,0,0,1-2.6-6.4,8.59,8.59,0,0,1,2.6-6.36,9.11,9.11,0,0,1,12.77,0,8.54,8.54,0,0,1,2.63,6.36A8.74,8.74,0,0,1,117.67,118.76Zm-11.16-1.57a6.86,6.86,0,0,0,9.58,0,6.72,6.72,0,0,0,2-4.83,6.74,6.74,0,1,0-13.48,0A6.72,6.72,0,0,0,106.51,117.19Z"/><path d="M126.32,103.81v2.84a5.57,5.57,0,0,1,5.41-3.12v2.19a5.45,5.45,0,0,0-3.93,1.42,5.64,5.64,0,0,0-1.48,4.26v9.52h-2.25V103.81Z"/><path d="M141.69,103.39a7.62,7.62,0,0,1,6.12,2.71,9.22,9.22,0,0,1,2.37,6.33c0,.11,0,.47-.07,1.06h-15a6.24,6.24,0,0,0,2.19,4.11,7,7,0,0,0,4.62,1.54c2.61,0,4.44-1,5.51-2.91l2,1.16a7.85,7.85,0,0,1-3.1,2.89,9.26,9.26,0,0,1-4.43,1,8.89,8.89,0,0,1-6.57-2.54,9.44,9.44,0,0,1,0-12.83A8.58,8.58,0,0,1,141.69,103.39Zm0,2.19a6.55,6.55,0,0,0-4.47,1.58,6.48,6.48,0,0,0-2.14,4.14h12.77a6.47,6.47,0,0,0-2.09-4.21A6.15,6.15,0,0,0,141.69,105.58Z"/><path d="M178.34,116.71l3.21,3.42-2.12,1.2-2.53-2.71a9.54,9.54,0,0,1-7.05,2.71,8.73,8.73,0,0,1-5.71-1.82,6.19,6.19,0,0,1-2.16-5,7.35,7.35,0,0,1,1.18-4.11,7.94,7.94,0,0,1,3.44-2.84,6.54,6.54,0,0,1-1.78-4.51,6,6,0,0,1,2.05-4.76,7,7,0,0,1,4.8-1.78,7.39,7.39,0,0,1,6.91,4.76l-2,1.16a4.87,4.87,0,0,0-1.83-2.63,5,5,0,0,0-3-1,4.73,4.73,0,0,0-3.18,1.13,3.69,3.69,0,0,0-1.3,2.94,4.29,4.29,0,0,0,.51,2.1,10.36,10.36,0,0,0,1.71,2.18l7.22,7.7a13.74,13.74,0,0,0,1.3-4.55l2.12,1.23A14.13,14.13,0,0,1,178.34,116.71ZM169.78,119a7.3,7.3,0,0,0,5.48-2.12l-7-7.5a5.83,5.83,0,0,0-2.89,2.07,5.16,5.16,0,0,0-.94,3,4.07,4.07,0,0,0,1.45,3.3A6,6,0,0,0,169.78,119Z"/><path d="M201.23,121.33a9.92,9.92,0,0,1-5.63-1.56,8.16,8.16,0,0,1-3.27-4.3l2.06-1.19a6.16,6.16,0,0,0,2.41,3.49,7.6,7.6,0,0,0,4.46,1.23,6.57,6.57,0,0,0,4.14-1.17,3.74,3.74,0,0,0,1.51-3.14,3.24,3.24,0,0,0-1.37-2.84,17.45,17.45,0,0,0-4.52-2,26.62,26.62,0,0,1-4.92-2,5.23,5.23,0,0,1-2.74-4.76,5.87,5.87,0,0,1,2.12-4.79,7.78,7.78,0,0,1,5.24-1.78A8.29,8.29,0,0,1,205.51,98a8.69,8.69,0,0,1,3.11,3.75l-2,1.13a5.9,5.9,0,0,0-5.88-4,5.5,5.5,0,0,0-3.61,1.11,3.72,3.72,0,0,0-1.36,3,3,3,0,0,0,1.24,2.67,16.55,16.55,0,0,0,4.07,1.81l1.85.65c.38.12.93.32,1.64.62a8.06,8.06,0,0,1,1.61.75,6,6,0,0,1,2.29,2,5.69,5.69,0,0,1,.86,3.08,6,6,0,0,1-2.23,4.89A9,9,0,0,1,201.23,121.33Z"/><path d="M221.32,103.39a7.64,7.64,0,0,1,6.12,2.71,9.26,9.26,0,0,1,2.36,6.33c0,.11,0,.47-.07,1.06h-15a6.24,6.24,0,0,0,2.19,4.11,7,7,0,0,0,4.62,1.54q3.9,0,5.51-2.91l2,1.16a7.83,7.83,0,0,1-3.09,2.89,9.26,9.26,0,0,1-4.43,1,8.86,8.86,0,0,1-6.57-2.54,9.43,9.43,0,0,1,0-12.83A8.6,8.6,0,0,1,221.32,103.39Zm0,2.19a6.55,6.55,0,0,0-4.47,1.58,6.43,6.43,0,0,0-2.14,4.14h12.76a6.46,6.46,0,0,0-2.08-4.21A6.17,6.17,0,0,0,221.32,105.58Z"/><path d="M235.65,103.81v2.84a5.56,5.56,0,0,1,5.41-3.12v2.19a5.45,5.45,0,0,0-3.93,1.42,5.64,5.64,0,0,0-1.48,4.26v9.52H233.4V103.81Z"/><path d="M250.47,118.55l6-14.74h2.39l-7,17.11H249.1l-7-17.11h2.39Z"/><path d="M264.36,98.54a1.59,1.59,0,0,1-.48,1.16,1.64,1.64,0,0,1-2.32,0,1.65,1.65,0,0,1,0-2.33,1.64,1.64,0,0,1,2.32,0A1.59,1.59,0,0,1,264.36,98.54Zm-.51,22.38h-2.26V103.81h2.26Z"/><path d="M276.61,121.33a8.74,8.74,0,0,1-6.43-2.57,8.84,8.84,0,0,1-2.57-6.4,9,9,0,0,1,13.56-7.75,7.25,7.25,0,0,1,2.94,3.27l-1.85,1.06a5.34,5.34,0,0,0-2.21-2.45,6.62,6.62,0,0,0-3.44-.91,6.73,6.73,0,0,0-6.74,6.78,6.72,6.72,0,0,0,1.95,4.83,6.52,6.52,0,0,0,4.79,2,6.67,6.67,0,0,0,3.41-.89,6.35,6.35,0,0,0,2.38-2.47l1.88,1.1a8,8,0,0,1-3.11,3.25A8.88,8.88,0,0,1,276.61,121.33Z"/><path d="M295.26,103.39a7.64,7.64,0,0,1,6.13,2.71,9.26,9.26,0,0,1,2.36,6.33c0,.11,0,.47-.07,1.06h-15a6.24,6.24,0,0,0,2.19,4.11,7,7,0,0,0,4.62,1.54q3.9,0,5.51-2.91l2,1.16a7.83,7.83,0,0,1-3.09,2.89,9.3,9.3,0,0,1-4.44,1,8.89,8.89,0,0,1-6.57-2.54,9.44,9.44,0,0,1,0-12.83A8.58,8.58,0,0,1,295.26,103.39Zm0,2.19a6.52,6.52,0,0,0-4.46,1.58,6.43,6.43,0,0,0-2.14,4.14h12.76a6.42,6.42,0,0,0-2.09-4.21A6.13,6.13,0,0,0,295.26,105.58Z"/><path class="cls-1" d="M174.44,82a41,41,0,1,1,41-41A41,41,0,0,1,174.44,82Zm0-76a35,35,0,1,0,35,35A35,35,0,0,0,174.44,6Z"/><path class="cls-2" d="M184.47,16.1v7.44a20.07,20.07,0,1,1-20.06,0V16.1a26.76,26.76,0,1,0,20.06,0Z"/><rect class="cls-3" x="171.09" y="9.17" width="6.69" height="26.76"/></g></g></svg>